<svg xmlns="http://www.w3.org/2000/svg" width="940" height="360" viewBox="0 0 940 360" role="img" aria-labelledby="title desc">
<title id="title">Repository commit history chart</title>
<desc id="desc">A repo-only X and Y axis chart showing daily commits from this repository history.</desc>
<defs>
<linearGradient id="bg" x1="0" y1="0" x2="1" y2="1">
<stop offset="0%" stop-color="#0f172a"/>
<stop offset="65%" stop-color="#111827"/>
<stop offset="100%" stop-color="#18181b"/>
</linearGradient>
<linearGradient id="bar" x1="0" y1="0" x2="0" y2="1">
<stop offset="0%" stop-color="#38bdf8" stop-opacity="0.95"/>
<stop offset="100%" stop-color="#2563eb" stop-opacity="0.38"/>
</linearGradient>
<filter id="softGlow" x="-30%" y="-30%" width="160%" height="160%">
<feGaussianBlur stdDeviation="3" result="blur"/>
<feMerge><feMergeNode in="blur"/><feMergeNode in="SourceGraphic"/></feMerge>
</filter>
</defs>
<rect width="100%" height="100%" rx="18" fill="url(#bg)"/>
<rect x="1" y="1" width="938" height="358" rx="17" fill="none" stroke="#334155" stroke-width="1"/>
<text x="32" y="42" fill="#e5e7eb" font-size="22" font-family="Segoe UI, Arial, sans-serif" font-weight="700">C++ Repo Commit Chart</text>
<text x="32" y="66" fill="#94a3b8" font-size="13" font-family="Segoe UI, Arial, sans-serif">X axis: commit dates . Y axis: commits per day . Repo-only history</text>
<text x="908" y="42" text-anchor="end" fill="#38bdf8" font-size="12" font-family="Segoe UI, Arial, sans-serif">Latest repo commit: 2026-07-17</text>
<line x1="74" y1="292.00" x2="902" y2="292.00" stroke="#263244" stroke-width="1"/>
<text x="58" y="296.00" text-anchor="end" fill="#64748b" font-size="11" font-family="Segoe UI, Arial, sans-serif">0</text>
<line x1="74" y1="240.50" x2="902" y2="240.50" stroke="#263244" stroke-width="1"/>
<text x="58" y="244.50" text-anchor="end" fill="#64748b" font-size="11" font-family="Segoe UI, Arial, sans-serif">5</text>
<line x1="74" y1="189.00" x2="902" y2="189.00" stroke="#263244" stroke-width="1"/>
<text x="58" y="193.00" text-anchor="end" fill="#64748b" font-size="11" font-family="Segoe UI, Arial, sans-serif">10</text>
<line x1="74" y1="137.50" x2="902" y2="137.50" stroke="#263244" stroke-width="1"/>
<text x="58" y="141.50" text-anchor="end" fill="#64748b" font-size="11" font-family="Segoe UI, Arial, sans-serif">15</text>
<line x1="74" y1="86.00" x2="902" y2="86.00" stroke="#263244" stroke-width="1"/>
<text x="58" y="90.00" text-anchor="end" fill="#64748b" font-size="11" font-family="Segoe UI, Arial, sans-serif">20</text>
<line x1="74" y1="86" x2="74" y2="292" stroke="#64748b" stroke-width="1.2"/>
<line x1="74" y1="292" x2="902" y2="292" stroke="#64748b" stroke-width="1.2"/>
<text x="22" y="174" transform="rotate(-90 22 174)" fill="#64748b" font-size="11" font-family="Segoe UI, Arial, sans-serif">Commits</text>
<line x1="74.00" y1="292" x2="74.00" y2="298" stroke="#64748b" stroke-width="1"/>
<text x="74.00" y="316" text-anchor="middle" fill="#64748b" font-size="11" font-family="Segoe UI, Arial, sans-serif">Jun 02</text>
<line x1="221.20" y1="292" x2="221.20" y2="298" stroke="#64748b" stroke-width="1"/>
<text x="221.20" y="316" text-anchor="middle" fill="#64748b" font-size="11" font-family="Segoe UI, Arial, sans-serif">Jun 10</text>
<line x1="368.40" y1="292" x2="368.40" y2="298" stroke="#64748b" stroke-width="1"/>
<text x="368.40" y="316" text-anchor="middle" fill="#64748b" font-size="11" font-family="Segoe UI, Arial, sans-serif">Jun 18</text>
<line x1="515.60" y1="292" x2="515.60" y2="298" stroke="#64748b" stroke-width="1"/>
<text x="515.60" y="316" text-anchor="middle" fill="#64748b" font-size="11" font-family="Segoe UI, Arial, sans-serif">Jun 26</text>
<line x1="662.80" y1="292" x2="662.80" y2="298" stroke="#64748b" stroke-width="1"/>
<text x="662.80" y="316" text-anchor="middle" fill="#64748b" font-size="11" font-family="Segoe UI, Arial, sans-serif">Jul 04</text>
<line x1="810.00" y1="292" x2="810.00" y2="298" stroke="#64748b" stroke-width="1"/>
<text x="810.00" y="316" text-anchor="middle" fill="#64748b" font-size="11" font-family="Segoe UI, Arial, sans-serif">Jul 12</text>
<line x1="902.00" y1="292" x2="902.00" y2="298" stroke="#64748b" stroke-width="1"/>
<text x="902.00" y="316" text-anchor="middle" fill="#64748b" font-size="11" font-family="Segoe UI, Arial, sans-serif">Jul 17</text>
<rect x="66.96" y="168.40" width="14.09" height="123.60" rx="5" fill="url(#bar)">
<title>2026-06-02: 12 commits</title>
</rect>
<rect x="85.36" y="271.40" width="14.09" height="20.60" rx="5" fill="url(#bar)">
<title>2026-06-03: 2 commits</title>
</rect>
<rect x="876.56" y="127.20" width="14.09" height="164.80" rx="5" fill="url(#bar)">
<title>2026-07-16: 16 commits</title>
</rect>
<rect x="894.96" y="271.40" width="14.09" height="20.60" rx="5" fill="url(#bar)">
<title>2026-07-17: 2 commits</title>
</rect>
<polyline fill="none" stroke="#a78bfa" stroke-width="3" stroke-linecap="round" stroke-linejoin="round" points="74.00,168.40 92.40,271.40 110.80,292.00 129.20,292.00 147.60,292.00 166.00,292.00 184.40,292.00 202.80,292.00 221.20,292.00 239.60,292.00 258.00,292.00 276.40,292.00 294.80,292.00 313.20,292.00 331.60,292.00 350.00,292.00 368.40,292.00 386.80,292.00 405.20,292.00 423.60,292.00 442.00,292.00 460.40,292.00 478.80,292.00 497.20,292.00 515.60,292.00 534.00,292.00 552.40,292.00 570.80,292.00 589.20,292.00 607.60,292.00 626.00,292.00 644.40,292.00 662.80,292.00 681.20,292.00 699.60,292.00 718.00,292.00 736.40,292.00 754.80,292.00 773.20,292.00 791.60,292.00 810.00,292.00 828.40,292.00 846.80,292.00 865.20,292.00 883.60,127.20 902.00,271.40" filter="url(#softGlow)"/>
<circle cx="74.00" cy="168.40" r="5.5" fill="#38bdf8" stroke="#e0f2fe" stroke-width="1.4">
<title>2026-06-02: 12 commits</title>
</circle>
<text x="74.00" y="157.40" text-anchor="middle" fill="#e5e7eb" font-size="11" font-family="Segoe UI, Arial, sans-serif" font-weight="700">12</text>
<circle cx="92.40" cy="271.40" r="5.5" fill="#38bdf8" stroke="#e0f2fe" stroke-width="1.4">
<title>2026-06-03: 2 commits</title>
</circle>
<text x="92.40" y="260.40" text-anchor="middle" fill="#e5e7eb" font-size="11" font-family="Segoe UI, Arial, sans-serif" font-weight="700">2</text>
<circle cx="883.60" cy="127.20" r="5.5" fill="#38bdf8" stroke="#e0f2fe" stroke-width="1.4">
<title>2026-07-16: 16 commits</title>
</circle>
<text x="883.60" y="116.20" text-anchor="middle" fill="#e5e7eb" font-size="11" font-family="Segoe UI, Arial, sans-serif" font-weight="700">16</text>
<circle cx="902.00" cy="271.40" r="5.5" fill="#38bdf8" stroke="#e0f2fe" stroke-width="1.4">
<title>2026-07-17: 2 commits</title>
</circle>
<text x="902.00" y="260.40" text-anchor="middle" fill="#e5e7eb" font-size="11" font-family="Segoe UI, Arial, sans-serif" font-weight="700">2</text>
<text x="74" y="340" fill="#64748b" font-size="11" font-family="Segoe UI, Arial, sans-serif">Range: 2026-06-02 to 2026-07-17</text>
<text x="902" y="340" text-anchor="end" fill="#64748b" font-size="11" font-family="Segoe UI, Arial, sans-serif">Generated from local git log, excluding bot commits</text>
</svg>
