<svg xmlns="http://www.w3.org/2000/svg" width="940" height="360" viewBox="0 0 940 360" role="img" aria-labelledby="title desc">
<title id="title">Repository commit history chart</title>
<desc id="desc">A repo-only X and Y axis chart showing daily commits from this repository history.</desc>
<defs>
<linearGradient id="bg" x1="0" y1="0" x2="1" y2="1">
<stop offset="0%" stop-color="#0f172a"/>
<stop offset="65%" stop-color="#111827"/>
<stop offset="100%" stop-color="#18181b"/>
</linearGradient>
<linearGradient id="bar" x1="0" y1="0" x2="0" y2="1">
<stop offset="0%" stop-color="#38bdf8" stop-opacity="0.95"/>
<stop offset="100%" stop-color="#2563eb" stop-opacity="0.38"/>
</linearGradient>
<filter id="softGlow" x="-30%" y="-30%" width="160%" height="160%">
<feGaussianBlur stdDeviation="3" result="blur"/>
<feMerge><feMergeNode in="blur"/><feMergeNode in="SourceGraphic"/></feMerge>
</filter>
</defs>
<rect width="100%" height="100%" rx="18" fill="url(#bg)"/>
<rect x="1" y="1" width="938" height="358" rx="17" fill="none" stroke="#334155" stroke-width="1"/>
<text x="32" y="42" fill="#e5e7eb" font-size="22" font-family="Segoe UI, Arial, sans-serif" font-weight="700">C++ Repo Commit Chart</text>
<text x="32" y="66" fill="#94a3b8" font-size="13" font-family="Segoe UI, Arial, sans-serif">X axis: commit dates . Y axis: commits per day . Repo-only history</text>
<text x="908" y="42" text-anchor="end" fill="#38bdf8" font-size="12" font-family="Segoe UI, Arial, sans-serif">Latest repo commit: 2026-09-26</text>
<line x1="74" y1="292.00" x2="902" y2="292.00" stroke="#263244" stroke-width="1"/>
<text x="58" y="296.00" text-anchor="end" fill="#64748b" font-size="11" font-family="Segoe UI, Arial, sans-serif">0</text>
<line x1="74" y1="240.50" x2="902" y2="240.50" stroke="#263244" stroke-width="1"/>
<text x="58" y="244.50" text-anchor="end" fill="#64748b" font-size="11" font-family="Segoe UI, Arial, sans-serif">5</text>
<line x1="74" y1="189.00" x2="902" y2="189.00" stroke="#263244" stroke-width="1"/>
<text x="58" y="193.00" text-anchor="end" fill="#64748b" font-size="11" font-family="Segoe UI, Arial, sans-serif">10</text>
<line x1="74" y1="137.50" x2="902" y2="137.50" stroke="#263244" stroke-width="1"/>
<text x="58" y="141.50" text-anchor="end" fill="#64748b" font-size="11" font-family="Segoe UI, Arial, sans-serif">15</text>
<line x1="74" y1="86.00" x2="902" y2="86.00" stroke="#263244" stroke-width="1"/>
<text x="58" y="90.00" text-anchor="end" fill="#64748b" font-size="11" font-family="Segoe UI, Arial, sans-serif">20</text>
<line x1="74" y1="86" x2="74" y2="292" stroke="#64748b" stroke-width="1.2"/>
<line x1="74" y1="292" x2="902" y2="292" stroke="#64748b" stroke-width="1.2"/>
<text x="22" y="174" transform="rotate(-90 22 174)" fill="#64748b" font-size="11" font-family="Segoe UI, Arial, sans-serif">Commits</text>
<line x1="74.00" y1="292" x2="74.00" y2="298" stroke="#64748b" stroke-width="1"/>
<text x="74.00" y="316" text-anchor="middle" fill="#64748b" font-size="11" font-family="Segoe UI, Arial, sans-serif">Jun 02</text>
<line x1="209.62" y1="292" x2="209.62" y2="298" stroke="#64748b" stroke-width="1"/>
<text x="209.62" y="316" text-anchor="middle" fill="#64748b" font-size="11" font-family="Segoe UI, Arial, sans-serif">Jun 21</text>
<line x1="345.24" y1="292" x2="345.24" y2="298" stroke="#64748b" stroke-width="1"/>
<text x="345.24" y="316" text-anchor="middle" fill="#64748b" font-size="11" font-family="Segoe UI, Arial, sans-serif">Jul 10</text>
<line x1="480.86" y1="292" x2="480.86" y2="298" stroke="#64748b" stroke-width="1"/>
<text x="480.86" y="316" text-anchor="middle" fill="#64748b" font-size="11" font-family="Segoe UI, Arial, sans-serif">Jul 29</text>
<line x1="616.48" y1="292" x2="616.48" y2="298" stroke="#64748b" stroke-width="1"/>
<text x="616.48" y="316" text-anchor="middle" fill="#64748b" font-size="11" font-family="Segoe UI, Arial, sans-serif">Aug 17</text>
<line x1="752.10" y1="292" x2="752.10" y2="298" stroke="#64748b" stroke-width="1"/>
<text x="752.10" y="316" text-anchor="middle" fill="#64748b" font-size="11" font-family="Segoe UI, Arial, sans-serif">Sep 05</text>
<line x1="887.72" y1="292" x2="887.72" y2="298" stroke="#64748b" stroke-width="1"/>
<text x="887.72" y="316" text-anchor="middle" fill="#64748b" font-size="11" font-family="Segoe UI, Arial, sans-serif">Sep 24</text>
<line x1="902.00" y1="292" x2="902.00" y2="298" stroke="#64748b" stroke-width="1"/>
<text x="902.00" y="316" text-anchor="middle" fill="#64748b" font-size="11" font-family="Segoe UI, Arial, sans-serif">Sep 26</text>
<rect x="70.00" y="168.40" width="8.00" height="123.60" rx="5" fill="url(#bar)">
<title>2026-06-02: 12 commits</title>
</rect>
<rect x="77.14" y="271.40" width="8.00" height="20.60" rx="5" fill="url(#bar)">
<title>2026-06-03: 2 commits</title>
</rect>
<rect x="384.07" y="127.20" width="8.00" height="164.80" rx="5" fill="url(#bar)">
<title>2026-07-16: 16 commits</title>
</rect>
<rect x="391.21" y="219.90" width="8.00" height="72.10" rx="5" fill="url(#bar)">
<title>2026-07-17: 7 commits</title>
</rect>
<rect x="398.34" y="219.90" width="8.00" height="72.10" rx="5" fill="url(#bar)">
<title>2026-07-18: 7 commits</title>
</rect>
<rect x="405.48" y="271.40" width="8.00" height="20.60" rx="5" fill="url(#bar)">
<title>2026-07-19: 2 commits</title>
</rect>
<rect x="448.31" y="281.70" width="8.00" height="10.30" rx="5" fill="url(#bar)">
<title>2026-07-25: 1 commit</title>
</rect>
<rect x="633.90" y="271.40" width="8.00" height="20.60" rx="5" fill="url(#bar)">
<title>2026-08-20: 2 commits</title>
</rect>
<rect x="848.03" y="261.10" width="8.00" height="30.90" rx="5" fill="url(#bar)">
<title>2026-09-19: 3 commits</title>
</rect>
<rect x="855.17" y="271.40" width="8.00" height="20.60" rx="5" fill="url(#bar)">
<title>2026-09-20: 2 commits</title>
</rect>
<rect x="862.31" y="281.70" width="8.00" height="10.30" rx="5" fill="url(#bar)">
<title>2026-09-21: 1 commit</title>
</rect>
<rect x="869.45" y="261.10" width="8.00" height="30.90" rx="5" fill="url(#bar)">
<title>2026-09-22: 3 commits</title>
</rect>
<rect x="876.59" y="281.70" width="8.00" height="10.30" rx="5" fill="url(#bar)">
<title>2026-09-23: 1 commit</title>
</rect>
<rect x="890.86" y="271.40" width="8.00" height="20.60" rx="5" fill="url(#bar)">
<title>2026-09-25: 2 commits</title>
</rect>
<rect x="898.00" y="281.70" width="8.00" height="10.30" rx="5" fill="url(#bar)">
<title>2026-09-26: 1 commit</title>
</rect>
<polyline fill="none" stroke="#a78bfa" stroke-width="3" stroke-linecap="round" stroke-linejoin="round" points="74.00,168.40 81.14,271.40 88.28,292.00 95.41,292.00 102.55,292.00 109.69,292.00 116.83,292.00 123.97,292.00 131.10,292.00 138.24,292.00 145.38,292.00 152.52,292.00 159.66,292.00 166.79,292.00 173.93,292.00 181.07,292.00 188.21,292.00 195.34,292.00 202.48,292.00 209.62,292.00 216.76,292.00 223.90,292.00 231.03,292.00 238.17,292.00 245.31,292.00 252.45,292.00 259.59,292.00 266.72,292.00 273.86,292.00 281.00,292.00 288.14,292.00 295.28,292.00 302.41,292.00 309.55,292.00 316.69,292.00 323.83,292.00 330.97,292.00 338.10,292.00 345.24,292.00 352.38,292.00 359.52,292.00 366.66,292.00 373.79,292.00 380.93,292.00 388.07,127.20 395.21,219.90 402.34,219.90 409.48,271.40 416.62,292.00 423.76,292.00 430.90,292.00 438.03,292.00 445.17,292.00 452.31,281.70 459.45,292.00 466.59,292.00 473.72,292.00 480.86,292.00 488.00,292.00 495.14,292.00 502.28,292.00 509.41,292.00 516.55,292.00 523.69,292.00 530.83,292.00 537.97,292.00 545.10,292.00 552.24,292.00 559.38,292.00 566.52,292.00 573.66,292.00 580.79,292.00 587.93,292.00 595.07,292.00 602.21,292.00 609.34,292.00 616.48,292.00 623.62,292.00 630.76,292.00 637.90,271.40 645.03,292.00 652.17,292.00 659.31,292.00 666.45,292.00 673.59,292.00 680.72,292.00 687.86,292.00 695.00,292.00 702.14,292.00 709.28,292.00 716.41,292.00 723.55,292.00 730.69,292.00 737.83,292.00 744.97,292.00 752.10,292.00 759.24,292.00 766.38,292.00 773.52,292.00 780.66,292.00 787.79,292.00 794.93,292.00 802.07,292.00 809.21,292.00 816.34,292.00 823.48,292.00 830.62,292.00 837.76,292.00 844.90,292.00 852.03,261.10 859.17,271.40 866.31,281.70 873.45,261.10 880.59,281.70 887.72,292.00 894.86,271.40 902.00,281.70" filter="url(#softGlow)"/>
<circle cx="74.00" cy="168.40" r="5.5" fill="#38bdf8" stroke="#e0f2fe" stroke-width="1.4">
<title>2026-06-02: 12 commits</title>
</circle>
<text x="74.00" y="157.40" text-anchor="middle" fill="#e5e7eb" font-size="11" font-family="Segoe UI, Arial, sans-serif" font-weight="700">12</text>
<circle cx="81.14" cy="271.40" r="5.5" fill="#38bdf8" stroke="#e0f2fe" stroke-width="1.4">
<title>2026-06-03: 2 commits</title>
</circle>
<text x="81.14" y="260.40" text-anchor="middle" fill="#e5e7eb" font-size="11" font-family="Segoe UI, Arial, sans-serif" font-weight="700">2</text>
<circle cx="388.07" cy="127.20" r="5.5" fill="#38bdf8" stroke="#e0f2fe" stroke-width="1.4">
<title>2026-07-16: 16 commits</title>
</circle>
<text x="388.07" y="116.20" text-anchor="middle" fill="#e5e7eb" font-size="11" font-family="Segoe UI, Arial, sans-serif" font-weight="700">16</text>
<circle cx="395.21" cy="219.90" r="5.5" fill="#38bdf8" stroke="#e0f2fe" stroke-width="1.4">
<title>2026-07-17: 7 commits</title>
</circle>
<text x="395.21" y="208.90" text-anchor="middle" fill="#e5e7eb" font-size="11" font-family="Segoe UI, Arial, sans-serif" font-weight="700">7</text>
<circle cx="402.34" cy="219.90" r="5.5" fill="#38bdf8" stroke="#e0f2fe" stroke-width="1.4">
<title>2026-07-18: 7 commits</title>
</circle>
<text x="402.34" y="208.90" text-anchor="middle" fill="#e5e7eb" font-size="11" font-family="Segoe UI, Arial, sans-serif" font-weight="700">7</text>
<circle cx="409.48" cy="271.40" r="5.5" fill="#38bdf8" stroke="#e0f2fe" stroke-width="1.4">
<title>2026-07-19: 2 commits</title>
</circle>
<text x="409.48" y="260.40" text-anchor="middle" fill="#e5e7eb" font-size="11" font-family="Segoe UI, Arial, sans-serif" font-weight="700">2</text>
<circle cx="452.31" cy="281.70" r="5.5" fill="#38bdf8" stroke="#e0f2fe" stroke-width="1.4">
<title>2026-07-25: 1 commit</title>
</circle>
<text x="452.31" y="270.70" text-anchor="middle" fill="#e5e7eb" font-size="11" font-family="Segoe UI, Arial, sans-serif" font-weight="700">1</text>
<circle cx="637.90" cy="271.40" r="5.5" fill="#38bdf8" stroke="#e0f2fe" stroke-width="1.4">
<title>2026-08-20: 2 commits</title>
</circle>
<text x="637.90" y="260.40" text-anchor="middle" fill="#e5e7eb" font-size="11" font-family="Segoe UI, Arial, sans-serif" font-weight="700">2</text>
<circle cx="852.03" cy="261.10" r="5.5" fill="#38bdf8" stroke="#e0f2fe" stroke-width="1.4">
<title>2026-09-19: 3 commits</title>
</circle>
<text x="852.03" y="250.10" text-anchor="middle" fill="#e5e7eb" font-size="11" font-family="Segoe UI, Arial, sans-serif" font-weight="700">3</text>
<circle cx="859.17" cy="271.40" r="5.5" fill="#38bdf8" stroke="#e0f2fe" stroke-width="1.4">
<title>2026-09-20: 2 commits</title>
</circle>
<text x="859.17" y="260.40" text-anchor="middle" fill="#e5e7eb" font-size="11" font-family="Segoe UI, Arial, sans-serif" font-weight="700">2</text>
<circle cx="866.31" cy="281.70" r="5.5" fill="#38bdf8" stroke="#e0f2fe" stroke-width="1.4">
<title>2026-09-21: 1 commit</title>
</circle>
<text x="866.31" y="270.70" text-anchor="middle" fill="#e5e7eb" font-size="11" font-family="Segoe UI, Arial, sans-serif" font-weight="700">1</text>
<circle cx="873.45" cy="261.10" r="5.5" fill="#38bdf8" stroke="#e0f2fe" stroke-width="1.4">
<title>2026-09-22: 3 commits</title>
</circle>
<text x="873.45" y="250.10" text-anchor="middle" fill="#e5e7eb" font-size="11" font-family="Segoe UI, Arial, sans-serif" font-weight="700">3</text>
<circle cx="880.59" cy="281.70" r="5.5" fill="#38bdf8" stroke="#e0f2fe" stroke-width="1.4">
<title>2026-09-23: 1 commit</title>
</circle>
<text x="880.59" y="270.70" text-anchor="middle" fill="#e5e7eb" font-size="11" font-family="Segoe UI, Arial, sans-serif" font-weight="700">1</text>
<circle cx="894.86" cy="271.40" r="5.5" fill="#38bdf8" stroke="#e0f2fe" stroke-width="1.4">
<title>2026-09-25: 2 commits</title>
</circle>
<text x="894.86" y="260.40" text-anchor="middle" fill="#e5e7eb" font-size="11" font-family="Segoe UI, Arial, sans-serif" font-weight="700">2</text>
<circle cx="902.00" cy="281.70" r="5.5" fill="#38bdf8" stroke="#e0f2fe" stroke-width="1.4">
<title>2026-09-26: 1 commit</title>
</circle>
<text x="902.00" y="270.70" text-anchor="middle" fill="#e5e7eb" font-size="11" font-family="Segoe UI, Arial, sans-serif" font-weight="700">1</text>
<text x="74" y="340" fill="#64748b" font-size="11" font-family="Segoe UI, Arial, sans-serif">Range: 2026-06-02 to 2026-09-26</text>
<text x="902" y="340" text-anchor="end" fill="#64748b" font-size="11" font-family="Segoe UI, Arial, sans-serif">Generated from local git log, excluding bot commits</text>
</svg>
