<svg xmlns="http://www.w3.org/2000/svg" width="940" height="360" viewBox="0 0 940 360" role="img" aria-labelledby="title desc">
<title id="title">Repository commit history chart</title>
<desc id="desc">A repo-only X and Y axis chart showing daily commits from this repository history.</desc>
<defs>
<linearGradient id="bg" x1="0" y1="0" x2="1" y2="1">
<stop offset="0%" stop-color="#0f172a"/>
<stop offset="65%" stop-color="#111827"/>
<stop offset="100%" stop-color="#18181b"/>
</linearGradient>
<linearGradient id="bar" x1="0" y1="0" x2="0" y2="1">
<stop offset="0%" stop-color="#38bdf8" stop-opacity="0.95"/>
<stop offset="100%" stop-color="#2563eb" stop-opacity="0.38"/>
</linearGradient>
<filter id="softGlow" x="-30%" y="-30%" width="160%" height="160%">
<feGaussianBlur stdDeviation="3" result="blur"/>
<feMerge><feMergeNode in="blur"/><feMergeNode in="SourceGraphic"/></feMerge>
</filter>
</defs>
<rect width="100%" height="100%" rx="18" fill="url(#bg)"/>
<rect x="1" y="1" width="938" height="358" rx="17" fill="none" stroke="#334155" stroke-width="1"/>
<text x="32" y="42" fill="#e5e7eb" font-size="22" font-family="Segoe UI, Arial, sans-serif" font-weight="700">C++ Repo Commit Chart</text>
<text x="32" y="66" fill="#94a3b8" font-size="13" font-family="Segoe UI, Arial, sans-serif">X axis: commit dates . Y axis: commits per day . Repo-only history</text>
<text x="908" y="42" text-anchor="end" fill="#38bdf8" font-size="12" font-family="Segoe UI, Arial, sans-serif">Latest repo commit: 2026-09-20</text>
<line x1="74" y1="292.00" x2="902" y2="292.00" stroke="#263244" stroke-width="1"/>
<text x="58" y="296.00" text-anchor="end" fill="#64748b" font-size="11" font-family="Segoe UI, Arial, sans-serif">0</text>
<line x1="74" y1="240.50" x2="902" y2="240.50" stroke="#263244" stroke-width="1"/>
<text x="58" y="244.50" text-anchor="end" fill="#64748b" font-size="11" font-family="Segoe UI, Arial, sans-serif">5</text>
<line x1="74" y1="189.00" x2="902" y2="189.00" stroke="#263244" stroke-width="1"/>
<text x="58" y="193.00" text-anchor="end" fill="#64748b" font-size="11" font-family="Segoe UI, Arial, sans-serif">10</text>
<line x1="74" y1="137.50" x2="902" y2="137.50" stroke="#263244" stroke-width="1"/>
<text x="58" y="141.50" text-anchor="end" fill="#64748b" font-size="11" font-family="Segoe UI, Arial, sans-serif">15</text>
<line x1="74" y1="86.00" x2="902" y2="86.00" stroke="#263244" stroke-width="1"/>
<text x="58" y="90.00" text-anchor="end" fill="#64748b" font-size="11" font-family="Segoe UI, Arial, sans-serif">20</text>
<line x1="74" y1="86" x2="74" y2="292" stroke="#64748b" stroke-width="1.2"/>
<line x1="74" y1="292" x2="902" y2="292" stroke="#64748b" stroke-width="1.2"/>
<text x="22" y="174" transform="rotate(-90 22 174)" fill="#64748b" font-size="11" font-family="Segoe UI, Arial, sans-serif">Commits</text>
<line x1="74.00" y1="292" x2="74.00" y2="298" stroke="#64748b" stroke-width="1"/>
<text x="74.00" y="316" text-anchor="middle" fill="#64748b" font-size="11" font-family="Segoe UI, Arial, sans-serif">Jun 02</text>
<line x1="209.49" y1="292" x2="209.49" y2="298" stroke="#64748b" stroke-width="1"/>
<text x="209.49" y="316" text-anchor="middle" fill="#64748b" font-size="11" font-family="Segoe UI, Arial, sans-serif">Jun 20</text>
<line x1="344.98" y1="292" x2="344.98" y2="298" stroke="#64748b" stroke-width="1"/>
<text x="344.98" y="316" text-anchor="middle" fill="#64748b" font-size="11" font-family="Segoe UI, Arial, sans-serif">Jul 08</text>
<line x1="480.47" y1="292" x2="480.47" y2="298" stroke="#64748b" stroke-width="1"/>
<text x="480.47" y="316" text-anchor="middle" fill="#64748b" font-size="11" font-family="Segoe UI, Arial, sans-serif">Jul 26</text>
<line x1="615.96" y1="292" x2="615.96" y2="298" stroke="#64748b" stroke-width="1"/>
<text x="615.96" y="316" text-anchor="middle" fill="#64748b" font-size="11" font-family="Segoe UI, Arial, sans-serif">Aug 13</text>
<line x1="751.45" y1="292" x2="751.45" y2="298" stroke="#64748b" stroke-width="1"/>
<text x="751.45" y="316" text-anchor="middle" fill="#64748b" font-size="11" font-family="Segoe UI, Arial, sans-serif">Aug 31</text>
<line x1="886.95" y1="292" x2="886.95" y2="298" stroke="#64748b" stroke-width="1"/>
<text x="886.95" y="316" text-anchor="middle" fill="#64748b" font-size="11" font-family="Segoe UI, Arial, sans-serif">Sep 18</text>
<line x1="902.00" y1="292" x2="902.00" y2="298" stroke="#64748b" stroke-width="1"/>
<text x="902.00" y="316" text-anchor="middle" fill="#64748b" font-size="11" font-family="Segoe UI, Arial, sans-serif">Sep 20</text>
<rect x="70.00" y="168.40" width="8.00" height="123.60" rx="5" fill="url(#bar)">
<title>2026-06-02: 12 commits</title>
</rect>
<rect x="77.53" y="271.40" width="8.00" height="20.60" rx="5" fill="url(#bar)">
<title>2026-06-03: 2 commits</title>
</rect>
<rect x="401.20" y="127.20" width="8.00" height="164.80" rx="5" fill="url(#bar)">
<title>2026-07-16: 16 commits</title>
</rect>
<rect x="408.73" y="219.90" width="8.00" height="72.10" rx="5" fill="url(#bar)">
<title>2026-07-17: 7 commits</title>
</rect>
<rect x="416.25" y="219.90" width="8.00" height="72.10" rx="5" fill="url(#bar)">
<title>2026-07-18: 7 commits</title>
</rect>
<rect x="423.78" y="271.40" width="8.00" height="20.60" rx="5" fill="url(#bar)">
<title>2026-07-19: 2 commits</title>
</rect>
<rect x="468.95" y="281.70" width="8.00" height="10.30" rx="5" fill="url(#bar)">
<title>2026-07-25: 1 commit</title>
</rect>
<rect x="664.65" y="271.40" width="8.00" height="20.60" rx="5" fill="url(#bar)">
<title>2026-08-20: 2 commits</title>
</rect>
<rect x="890.47" y="261.10" width="8.00" height="30.90" rx="5" fill="url(#bar)">
<title>2026-09-19: 3 commits</title>
</rect>
<rect x="898.00" y="281.70" width="8.00" height="10.30" rx="5" fill="url(#bar)">
<title>2026-09-20: 1 commit</title>
</rect>
<polyline fill="none" stroke="#a78bfa" stroke-width="3" stroke-linecap="round" stroke-linejoin="round" points="74.00,168.40 81.53,271.40 89.05,292.00 96.58,292.00 104.11,292.00 111.64,292.00 119.16,292.00 126.69,292.00 134.22,292.00 141.75,292.00 149.27,292.00 156.80,292.00 164.33,292.00 171.85,292.00 179.38,292.00 186.91,292.00 194.44,292.00 201.96,292.00 209.49,292.00 217.02,292.00 224.55,292.00 232.07,292.00 239.60,292.00 247.13,292.00 254.65,292.00 262.18,292.00 269.71,292.00 277.24,292.00 284.76,292.00 292.29,292.00 299.82,292.00 307.35,292.00 314.87,292.00 322.40,292.00 329.93,292.00 337.45,292.00 344.98,292.00 352.51,292.00 360.04,292.00 367.56,292.00 375.09,292.00 382.62,292.00 390.15,292.00 397.67,292.00 405.20,127.20 412.73,219.90 420.25,219.90 427.78,271.40 435.31,292.00 442.84,292.00 450.36,292.00 457.89,292.00 465.42,292.00 472.95,281.70 480.47,292.00 488.00,292.00 495.53,292.00 503.05,292.00 510.58,292.00 518.11,292.00 525.64,292.00 533.16,292.00 540.69,292.00 548.22,292.00 555.75,292.00 563.27,292.00 570.80,292.00 578.33,292.00 585.85,292.00 593.38,292.00 600.91,292.00 608.44,292.00 615.96,292.00 623.49,292.00 631.02,292.00 638.55,292.00 646.07,292.00 653.60,292.00 661.13,292.00 668.65,271.40 676.18,292.00 683.71,292.00 691.24,292.00 698.76,292.00 706.29,292.00 713.82,292.00 721.35,292.00 728.87,292.00 736.40,292.00 743.93,292.00 751.45,292.00 758.98,292.00 766.51,292.00 774.04,292.00 781.56,292.00 789.09,292.00 796.62,292.00 804.15,292.00 811.67,292.00 819.20,292.00 826.73,292.00 834.25,292.00 841.78,292.00 849.31,292.00 856.84,292.00 864.36,292.00 871.89,292.00 879.42,292.00 886.95,292.00 894.47,261.10 902.00,281.70" filter="url(#softGlow)"/>
<circle cx="74.00" cy="168.40" r="5.5" fill="#38bdf8" stroke="#e0f2fe" stroke-width="1.4">
<title>2026-06-02: 12 commits</title>
</circle>
<text x="74.00" y="157.40" text-anchor="middle" fill="#e5e7eb" font-size="11" font-family="Segoe UI, Arial, sans-serif" font-weight="700">12</text>
<circle cx="81.53" cy="271.40" r="5.5" fill="#38bdf8" stroke="#e0f2fe" stroke-width="1.4">
<title>2026-06-03: 2 commits</title>
</circle>
<text x="81.53" y="260.40" text-anchor="middle" fill="#e5e7eb" font-size="11" font-family="Segoe UI, Arial, sans-serif" font-weight="700">2</text>
<circle cx="405.20" cy="127.20" r="5.5" fill="#38bdf8" stroke="#e0f2fe" stroke-width="1.4">
<title>2026-07-16: 16 commits</title>
</circle>
<text x="405.20" y="116.20" text-anchor="middle" fill="#e5e7eb" font-size="11" font-family="Segoe UI, Arial, sans-serif" font-weight="700">16</text>
<circle cx="412.73" cy="219.90" r="5.5" fill="#38bdf8" stroke="#e0f2fe" stroke-width="1.4">
<title>2026-07-17: 7 commits</title>
</circle>
<text x="412.73" y="208.90" text-anchor="middle" fill="#e5e7eb" font-size="11" font-family="Segoe UI, Arial, sans-serif" font-weight="700">7</text>
<circle cx="420.25" cy="219.90" r="5.5" fill="#38bdf8" stroke="#e0f2fe" stroke-width="1.4">
<title>2026-07-18: 7 commits</title>
</circle>
<text x="420.25" y="208.90" text-anchor="middle" fill="#e5e7eb" font-size="11" font-family="Segoe UI, Arial, sans-serif" font-weight="700">7</text>
<circle cx="427.78" cy="271.40" r="5.5" fill="#38bdf8" stroke="#e0f2fe" stroke-width="1.4">
<title>2026-07-19: 2 commits</title>
</circle>
<text x="427.78" y="260.40" text-anchor="middle" fill="#e5e7eb" font-size="11" font-family="Segoe UI, Arial, sans-serif" font-weight="700">2</text>
<circle cx="472.95" cy="281.70" r="5.5" fill="#38bdf8" stroke="#e0f2fe" stroke-width="1.4">
<title>2026-07-25: 1 commit</title>
</circle>
<text x="472.95" y="270.70" text-anchor="middle" fill="#e5e7eb" font-size="11" font-family="Segoe UI, Arial, sans-serif" font-weight="700">1</text>
<circle cx="668.65" cy="271.40" r="5.5" fill="#38bdf8" stroke="#e0f2fe" stroke-width="1.4">
<title>2026-08-20: 2 commits</title>
</circle>
<text x="668.65" y="260.40" text-anchor="middle" fill="#e5e7eb" font-size="11" font-family="Segoe UI, Arial, sans-serif" font-weight="700">2</text>
<circle cx="894.47" cy="261.10" r="5.5" fill="#38bdf8" stroke="#e0f2fe" stroke-width="1.4">
<title>2026-09-19: 3 commits</title>
</circle>
<text x="894.47" y="250.10" text-anchor="middle" fill="#e5e7eb" font-size="11" font-family="Segoe UI, Arial, sans-serif" font-weight="700">3</text>
<circle cx="902.00" cy="281.70" r="5.5" fill="#38bdf8" stroke="#e0f2fe" stroke-width="1.4">
<title>2026-09-20: 1 commit</title>
</circle>
<text x="902.00" y="270.70" text-anchor="middle" fill="#e5e7eb" font-size="11" font-family="Segoe UI, Arial, sans-serif" font-weight="700">1</text>
<text x="74" y="340" fill="#64748b" font-size="11" font-family="Segoe UI, Arial, sans-serif">Range: 2026-06-02 to 2026-09-20</text>
<text x="902" y="340" text-anchor="end" fill="#64748b" font-size="11" font-family="Segoe UI, Arial, sans-serif">Generated from local git log, excluding bot commits</text>
</svg>
