<svg xmlns="http://www.w3.org/2000/svg" width="940" height="360" viewBox="0 0 940 360" role="img" aria-labelledby="title desc">
<title id="title">Repository commit history chart</title>
<desc id="desc">A repo-only X and Y axis chart showing daily commits from this repository history.</desc>
<defs>
<linearGradient id="bg" x1="0" y1="0" x2="1" y2="1">
<stop offset="0%" stop-color="#0f172a"/>
<stop offset="65%" stop-color="#111827"/>
<stop offset="100%" stop-color="#18181b"/>
</linearGradient>
<linearGradient id="bar" x1="0" y1="0" x2="0" y2="1">
<stop offset="0%" stop-color="#38bdf8" stop-opacity="0.95"/>
<stop offset="100%" stop-color="#2563eb" stop-opacity="0.38"/>
</linearGradient>
<filter id="softGlow" x="-30%" y="-30%" width="160%" height="160%">
<feGaussianBlur stdDeviation="3" result="blur"/>
<feMerge><feMergeNode in="blur"/><feMergeNode in="SourceGraphic"/></feMerge>
</filter>
</defs>
<rect width="100%" height="100%" rx="18" fill="url(#bg)"/>
<rect x="1" y="1" width="938" height="358" rx="17" fill="none" stroke="#334155" stroke-width="1"/>
<text x="32" y="42" fill="#e5e7eb" font-size="22" font-family="Segoe UI, Arial, sans-serif" font-weight="700">C++ Repo Commit Chart</text>
<text x="32" y="66" fill="#94a3b8" font-size="13" font-family="Segoe UI, Arial, sans-serif">X axis: commit dates . Y axis: commits per day . Repo-only history</text>
<text x="908" y="42" text-anchor="end" fill="#38bdf8" font-size="12" font-family="Segoe UI, Arial, sans-serif">Latest repo commit: 2026-09-27</text>
<line x1="74" y1="292.00" x2="902" y2="292.00" stroke="#263244" stroke-width="1"/>
<text x="58" y="296.00" text-anchor="end" fill="#64748b" font-size="11" font-family="Segoe UI, Arial, sans-serif">0</text>
<line x1="74" y1="240.50" x2="902" y2="240.50" stroke="#263244" stroke-width="1"/>
<text x="58" y="244.50" text-anchor="end" fill="#64748b" font-size="11" font-family="Segoe UI, Arial, sans-serif">5</text>
<line x1="74" y1="189.00" x2="902" y2="189.00" stroke="#263244" stroke-width="1"/>
<text x="58" y="193.00" text-anchor="end" fill="#64748b" font-size="11" font-family="Segoe UI, Arial, sans-serif">10</text>
<line x1="74" y1="137.50" x2="902" y2="137.50" stroke="#263244" stroke-width="1"/>
<text x="58" y="141.50" text-anchor="end" fill="#64748b" font-size="11" font-family="Segoe UI, Arial, sans-serif">15</text>
<line x1="74" y1="86.00" x2="902" y2="86.00" stroke="#263244" stroke-width="1"/>
<text x="58" y="90.00" text-anchor="end" fill="#64748b" font-size="11" font-family="Segoe UI, Arial, sans-serif">20</text>
<line x1="74" y1="86" x2="74" y2="292" stroke="#64748b" stroke-width="1.2"/>
<line x1="74" y1="292" x2="902" y2="292" stroke="#64748b" stroke-width="1.2"/>
<text x="22" y="174" transform="rotate(-90 22 174)" fill="#64748b" font-size="11" font-family="Segoe UI, Arial, sans-serif">Commits</text>
<line x1="74.00" y1="292" x2="74.00" y2="298" stroke="#64748b" stroke-width="1"/>
<text x="74.00" y="316" text-anchor="middle" fill="#64748b" font-size="11" font-family="Segoe UI, Arial, sans-serif">Jun 02</text>
<line x1="215.54" y1="292" x2="215.54" y2="298" stroke="#64748b" stroke-width="1"/>
<text x="215.54" y="316" text-anchor="middle" fill="#64748b" font-size="11" font-family="Segoe UI, Arial, sans-serif">Jun 22</text>
<line x1="357.08" y1="292" x2="357.08" y2="298" stroke="#64748b" stroke-width="1"/>
<text x="357.08" y="316" text-anchor="middle" fill="#64748b" font-size="11" font-family="Segoe UI, Arial, sans-serif">Jul 12</text>
<line x1="498.62" y1="292" x2="498.62" y2="298" stroke="#64748b" stroke-width="1"/>
<text x="498.62" y="316" text-anchor="middle" fill="#64748b" font-size="11" font-family="Segoe UI, Arial, sans-serif">Aug 01</text>
<line x1="640.15" y1="292" x2="640.15" y2="298" stroke="#64748b" stroke-width="1"/>
<text x="640.15" y="316" text-anchor="middle" fill="#64748b" font-size="11" font-family="Segoe UI, Arial, sans-serif">Aug 21</text>
<line x1="781.69" y1="292" x2="781.69" y2="298" stroke="#64748b" stroke-width="1"/>
<text x="781.69" y="316" text-anchor="middle" fill="#64748b" font-size="11" font-family="Segoe UI, Arial, sans-serif">Sep 10</text>
<line x1="902.00" y1="292" x2="902.00" y2="298" stroke="#64748b" stroke-width="1"/>
<text x="902.00" y="316" text-anchor="middle" fill="#64748b" font-size="11" font-family="Segoe UI, Arial, sans-serif">Sep 27</text>
<rect x="70.00" y="168.40" width="8.00" height="123.60" rx="5" fill="url(#bar)">
<title>2026-06-02: 12 commits</title>
</rect>
<rect x="77.08" y="271.40" width="8.00" height="20.60" rx="5" fill="url(#bar)">
<title>2026-06-03: 2 commits</title>
</rect>
<rect x="381.38" y="127.20" width="8.00" height="164.80" rx="5" fill="url(#bar)">
<title>2026-07-16: 16 commits</title>
</rect>
<rect x="388.46" y="219.90" width="8.00" height="72.10" rx="5" fill="url(#bar)">
<title>2026-07-17: 7 commits</title>
</rect>
<rect x="395.54" y="219.90" width="8.00" height="72.10" rx="5" fill="url(#bar)">
<title>2026-07-18: 7 commits</title>
</rect>
<rect x="402.62" y="271.40" width="8.00" height="20.60" rx="5" fill="url(#bar)">
<title>2026-07-19: 2 commits</title>
</rect>
<rect x="445.08" y="281.70" width="8.00" height="10.30" rx="5" fill="url(#bar)">
<title>2026-07-25: 1 commit</title>
</rect>
<rect x="629.08" y="271.40" width="8.00" height="20.60" rx="5" fill="url(#bar)">
<title>2026-08-20: 2 commits</title>
</rect>
<rect x="841.38" y="261.10" width="8.00" height="30.90" rx="5" fill="url(#bar)">
<title>2026-09-19: 3 commits</title>
</rect>
<rect x="848.46" y="271.40" width="8.00" height="20.60" rx="5" fill="url(#bar)">
<title>2026-09-20: 2 commits</title>
</rect>
<rect x="855.54" y="281.70" width="8.00" height="10.30" rx="5" fill="url(#bar)">
<title>2026-09-21: 1 commit</title>
</rect>
<rect x="862.62" y="261.10" width="8.00" height="30.90" rx="5" fill="url(#bar)">
<title>2026-09-22: 3 commits</title>
</rect>
<rect x="869.69" y="281.70" width="8.00" height="10.30" rx="5" fill="url(#bar)">
<title>2026-09-23: 1 commit</title>
</rect>
<rect x="883.85" y="271.40" width="8.00" height="20.60" rx="5" fill="url(#bar)">
<title>2026-09-25: 2 commits</title>
</rect>
<rect x="890.92" y="209.60" width="8.00" height="82.40" rx="5" fill="url(#bar)">
<title>2026-09-26: 8 commits</title>
</rect>
<rect x="898.00" y="281.70" width="8.00" height="10.30" rx="5" fill="url(#bar)">
<title>2026-09-27: 1 commit</title>
</rect>
<polyline fill="none" stroke="#a78bfa" stroke-width="3" stroke-linecap="round" stroke-linejoin="round" points="74.00,168.40 81.08,271.40 88.15,292.00 95.23,292.00 102.31,292.00 109.38,292.00 116.46,292.00 123.54,292.00 130.62,292.00 137.69,292.00 144.77,292.00 151.85,292.00 158.92,292.00 166.00,292.00 173.08,292.00 180.15,292.00 187.23,292.00 194.31,292.00 201.38,292.00 208.46,292.00 215.54,292.00 222.62,292.00 229.69,292.00 236.77,292.00 243.85,292.00 250.92,292.00 258.00,292.00 265.08,292.00 272.15,292.00 279.23,292.00 286.31,292.00 293.38,292.00 300.46,292.00 307.54,292.00 314.62,292.00 321.69,292.00 328.77,292.00 335.85,292.00 342.92,292.00 350.00,292.00 357.08,292.00 364.15,292.00 371.23,292.00 378.31,292.00 385.38,127.20 392.46,219.90 399.54,219.90 406.62,271.40 413.69,292.00 420.77,292.00 427.85,292.00 434.92,292.00 442.00,292.00 449.08,281.70 456.15,292.00 463.23,292.00 470.31,292.00 477.38,292.00 484.46,292.00 491.54,292.00 498.62,292.00 505.69,292.00 512.77,292.00 519.85,292.00 526.92,292.00 534.00,292.00 541.08,292.00 548.15,292.00 555.23,292.00 562.31,292.00 569.38,292.00 576.46,292.00 583.54,292.00 590.62,292.00 597.69,292.00 604.77,292.00 611.85,292.00 618.92,292.00 626.00,292.00 633.08,271.40 640.15,292.00 647.23,292.00 654.31,292.00 661.38,292.00 668.46,292.00 675.54,292.00 682.62,292.00 689.69,292.00 696.77,292.00 703.85,292.00 710.92,292.00 718.00,292.00 725.08,292.00 732.15,292.00 739.23,292.00 746.31,292.00 753.38,292.00 760.46,292.00 767.54,292.00 774.62,292.00 781.69,292.00 788.77,292.00 795.85,292.00 802.92,292.00 810.00,292.00 817.08,292.00 824.15,292.00 831.23,292.00 838.31,292.00 845.38,261.10 852.46,271.40 859.54,281.70 866.62,261.10 873.69,281.70 880.77,292.00 887.85,271.40 894.92,209.60 902.00,281.70" filter="url(#softGlow)"/>
<circle cx="74.00" cy="168.40" r="5.5" fill="#38bdf8" stroke="#e0f2fe" stroke-width="1.4">
<title>2026-06-02: 12 commits</title>
</circle>
<text x="74.00" y="157.40" text-anchor="middle" fill="#e5e7eb" font-size="11" font-family="Segoe UI, Arial, sans-serif" font-weight="700">12</text>
<circle cx="81.08" cy="271.40" r="5.5" fill="#38bdf8" stroke="#e0f2fe" stroke-width="1.4">
<title>2026-06-03: 2 commits</title>
</circle>
<text x="81.08" y="260.40" text-anchor="middle" fill="#e5e7eb" font-size="11" font-family="Segoe UI, Arial, sans-serif" font-weight="700">2</text>
<circle cx="385.38" cy="127.20" r="5.5" fill="#38bdf8" stroke="#e0f2fe" stroke-width="1.4">
<title>2026-07-16: 16 commits</title>
</circle>
<text x="385.38" y="116.20" text-anchor="middle" fill="#e5e7eb" font-size="11" font-family="Segoe UI, Arial, sans-serif" font-weight="700">16</text>
<circle cx="392.46" cy="219.90" r="5.5" fill="#38bdf8" stroke="#e0f2fe" stroke-width="1.4">
<title>2026-07-17: 7 commits</title>
</circle>
<text x="392.46" y="208.90" text-anchor="middle" fill="#e5e7eb" font-size="11" font-family="Segoe UI, Arial, sans-serif" font-weight="700">7</text>
<circle cx="399.54" cy="219.90" r="5.5" fill="#38bdf8" stroke="#e0f2fe" stroke-width="1.4">
<title>2026-07-18: 7 commits</title>
</circle>
<text x="399.54" y="208.90" text-anchor="middle" fill="#e5e7eb" font-size="11" font-family="Segoe UI, Arial, sans-serif" font-weight="700">7</text>
<circle cx="406.62" cy="271.40" r="5.5" fill="#38bdf8" stroke="#e0f2fe" stroke-width="1.4">
<title>2026-07-19: 2 commits</title>
</circle>
<text x="406.62" y="260.40" text-anchor="middle" fill="#e5e7eb" font-size="11" font-family="Segoe UI, Arial, sans-serif" font-weight="700">2</text>
<circle cx="449.08" cy="281.70" r="5.5" fill="#38bdf8" stroke="#e0f2fe" stroke-width="1.4">
<title>2026-07-25: 1 commit</title>
</circle>
<text x="449.08" y="270.70" text-anchor="middle" fill="#e5e7eb" font-size="11" font-family="Segoe UI, Arial, sans-serif" font-weight="700">1</text>
<circle cx="633.08" cy="271.40" r="5.5" fill="#38bdf8" stroke="#e0f2fe" stroke-width="1.4">
<title>2026-08-20: 2 commits</title>
</circle>
<text x="633.08" y="260.40" text-anchor="middle" fill="#e5e7eb" font-size="11" font-family="Segoe UI, Arial, sans-serif" font-weight="700">2</text>
<circle cx="845.38" cy="261.10" r="5.5" fill="#38bdf8" stroke="#e0f2fe" stroke-width="1.4">
<title>2026-09-19: 3 commits</title>
</circle>
<text x="845.38" y="250.10" text-anchor="middle" fill="#e5e7eb" font-size="11" font-family="Segoe UI, Arial, sans-serif" font-weight="700">3</text>
<circle cx="852.46" cy="271.40" r="5.5" fill="#38bdf8" stroke="#e0f2fe" stroke-width="1.4">
<title>2026-09-20: 2 commits</title>
</circle>
<text x="852.46" y="260.40" text-anchor="middle" fill="#e5e7eb" font-size="11" font-family="Segoe UI, Arial, sans-serif" font-weight="700">2</text>
<circle cx="859.54" cy="281.70" r="5.5" fill="#38bdf8" stroke="#e0f2fe" stroke-width="1.4">
<title>2026-09-21: 1 commit</title>
</circle>
<text x="859.54" y="270.70" text-anchor="middle" fill="#e5e7eb" font-size="11" font-family="Segoe UI, Arial, sans-serif" font-weight="700">1</text>
<circle cx="866.62" cy="261.10" r="5.5" fill="#38bdf8" stroke="#e0f2fe" stroke-width="1.4">
<title>2026-09-22: 3 commits</title>
</circle>
<text x="866.62" y="250.10" text-anchor="middle" fill="#e5e7eb" font-size="11" font-family="Segoe UI, Arial, sans-serif" font-weight="700">3</text>
<circle cx="873.69" cy="281.70" r="5.5" fill="#38bdf8" stroke="#e0f2fe" stroke-width="1.4">
<title>2026-09-23: 1 commit</title>
</circle>
<text x="873.69" y="270.70" text-anchor="middle" fill="#e5e7eb" font-size="11" font-family="Segoe UI, Arial, sans-serif" font-weight="700">1</text>
<circle cx="887.85" cy="271.40" r="5.5" fill="#38bdf8" stroke="#e0f2fe" stroke-width="1.4">
<title>2026-09-25: 2 commits</title>
</circle>
<text x="887.85" y="260.40" text-anchor="middle" fill="#e5e7eb" font-size="11" font-family="Segoe UI, Arial, sans-serif" font-weight="700">2</text>
<circle cx="894.92" cy="209.60" r="5.5" fill="#38bdf8" stroke="#e0f2fe" stroke-width="1.4">
<title>2026-09-26: 8 commits</title>
</circle>
<text x="894.92" y="198.60" text-anchor="middle" fill="#e5e7eb" font-size="11" font-family="Segoe UI, Arial, sans-serif" font-weight="700">8</text>
<circle cx="902.00" cy="281.70" r="5.5" fill="#38bdf8" stroke="#e0f2fe" stroke-width="1.4">
<title>2026-09-27: 1 commit</title>
</circle>
<text x="902.00" y="270.70" text-anchor="middle" fill="#e5e7eb" font-size="11" font-family="Segoe UI, Arial, sans-serif" font-weight="700">1</text>
<text x="74" y="340" fill="#64748b" font-size="11" font-family="Segoe UI, Arial, sans-serif">Range: 2026-06-02 to 2026-09-27</text>
<text x="902" y="340" text-anchor="end" fill="#64748b" font-size="11" font-family="Segoe UI, Arial, sans-serif">Generated from local git log, excluding bot commits</text>
</svg>
