<svg xmlns="http://www.w3.org/2000/svg" width="940" height="360" viewBox="0 0 940 360" role="img" aria-labelledby="title desc">
<title id="title">Repository commit history chart</title>
<desc id="desc">A repo-only X and Y axis chart showing daily commits from this repository history.</desc>
<defs>
<linearGradient id="bg" x1="0" y1="0" x2="1" y2="1">
<stop offset="0%" stop-color="#0f172a"/>
<stop offset="65%" stop-color="#111827"/>
<stop offset="100%" stop-color="#18181b"/>
</linearGradient>
<linearGradient id="bar" x1="0" y1="0" x2="0" y2="1">
<stop offset="0%" stop-color="#38bdf8" stop-opacity="0.95"/>
<stop offset="100%" stop-color="#2563eb" stop-opacity="0.38"/>
</linearGradient>
<filter id="softGlow" x="-30%" y="-30%" width="160%" height="160%">
<feGaussianBlur stdDeviation="3" result="blur"/>
<feMerge><feMergeNode in="blur"/><feMergeNode in="SourceGraphic"/></feMerge>
</filter>
</defs>
<rect width="100%" height="100%" rx="18" fill="url(#bg)"/>
<rect x="1" y="1" width="938" height="358" rx="17" fill="none" stroke="#334155" stroke-width="1"/>
<text x="32" y="42" fill="#e5e7eb" font-size="22" font-family="Segoe UI, Arial, sans-serif" font-weight="700">C++ Repo Commit Chart</text>
<text x="32" y="66" fill="#94a3b8" font-size="13" font-family="Segoe UI, Arial, sans-serif">X axis: commit dates . Y axis: commits per day . Repo-only history</text>
<text x="908" y="42" text-anchor="end" fill="#38bdf8" font-size="12" font-family="Segoe UI, Arial, sans-serif">Latest repo commit: 2026-09-19</text>
<line x1="74" y1="292.00" x2="902" y2="292.00" stroke="#263244" stroke-width="1"/>
<text x="58" y="296.00" text-anchor="end" fill="#64748b" font-size="11" font-family="Segoe UI, Arial, sans-serif">0</text>
<line x1="74" y1="240.50" x2="902" y2="240.50" stroke="#263244" stroke-width="1"/>
<text x="58" y="244.50" text-anchor="end" fill="#64748b" font-size="11" font-family="Segoe UI, Arial, sans-serif">5</text>
<line x1="74" y1="189.00" x2="902" y2="189.00" stroke="#263244" stroke-width="1"/>
<text x="58" y="193.00" text-anchor="end" fill="#64748b" font-size="11" font-family="Segoe UI, Arial, sans-serif">10</text>
<line x1="74" y1="137.50" x2="902" y2="137.50" stroke="#263244" stroke-width="1"/>
<text x="58" y="141.50" text-anchor="end" fill="#64748b" font-size="11" font-family="Segoe UI, Arial, sans-serif">15</text>
<line x1="74" y1="86.00" x2="902" y2="86.00" stroke="#263244" stroke-width="1"/>
<text x="58" y="90.00" text-anchor="end" fill="#64748b" font-size="11" font-family="Segoe UI, Arial, sans-serif">20</text>
<line x1="74" y1="86" x2="74" y2="292" stroke="#64748b" stroke-width="1.2"/>
<line x1="74" y1="292" x2="902" y2="292" stroke="#64748b" stroke-width="1.2"/>
<text x="22" y="174" transform="rotate(-90 22 174)" fill="#64748b" font-size="11" font-family="Segoe UI, Arial, sans-serif">Commits</text>
<line x1="74.00" y1="292" x2="74.00" y2="298" stroke="#64748b" stroke-width="1"/>
<text x="74.00" y="316" text-anchor="middle" fill="#64748b" font-size="11" font-family="Segoe UI, Arial, sans-serif">Jun 02</text>
<line x1="210.73" y1="292" x2="210.73" y2="298" stroke="#64748b" stroke-width="1"/>
<text x="210.73" y="316" text-anchor="middle" fill="#64748b" font-size="11" font-family="Segoe UI, Arial, sans-serif">Jun 20</text>
<line x1="347.47" y1="292" x2="347.47" y2="298" stroke="#64748b" stroke-width="1"/>
<text x="347.47" y="316" text-anchor="middle" fill="#64748b" font-size="11" font-family="Segoe UI, Arial, sans-serif">Jul 08</text>
<line x1="484.20" y1="292" x2="484.20" y2="298" stroke="#64748b" stroke-width="1"/>
<text x="484.20" y="316" text-anchor="middle" fill="#64748b" font-size="11" font-family="Segoe UI, Arial, sans-serif">Jul 26</text>
<line x1="620.94" y1="292" x2="620.94" y2="298" stroke="#64748b" stroke-width="1"/>
<text x="620.94" y="316" text-anchor="middle" fill="#64748b" font-size="11" font-family="Segoe UI, Arial, sans-serif">Aug 13</text>
<line x1="757.67" y1="292" x2="757.67" y2="298" stroke="#64748b" stroke-width="1"/>
<text x="757.67" y="316" text-anchor="middle" fill="#64748b" font-size="11" font-family="Segoe UI, Arial, sans-serif">Aug 31</text>
<line x1="894.40" y1="292" x2="894.40" y2="298" stroke="#64748b" stroke-width="1"/>
<text x="894.40" y="316" text-anchor="middle" fill="#64748b" font-size="11" font-family="Segoe UI, Arial, sans-serif">Sep 18</text>
<line x1="902.00" y1="292" x2="902.00" y2="298" stroke="#64748b" stroke-width="1"/>
<text x="902.00" y="316" text-anchor="middle" fill="#64748b" font-size="11" font-family="Segoe UI, Arial, sans-serif">Sep 19</text>
<rect x="70.00" y="168.40" width="8.00" height="123.60" rx="5" fill="url(#bar)">
<title>2026-06-02: 12 commits</title>
</rect>
<rect x="77.60" y="271.40" width="8.00" height="20.60" rx="5" fill="url(#bar)">
<title>2026-06-03: 2 commits</title>
</rect>
<rect x="404.24" y="127.20" width="8.00" height="164.80" rx="5" fill="url(#bar)">
<title>2026-07-16: 16 commits</title>
</rect>
<rect x="411.83" y="219.90" width="8.00" height="72.10" rx="5" fill="url(#bar)">
<title>2026-07-17: 7 commits</title>
</rect>
<rect x="419.43" y="219.90" width="8.00" height="72.10" rx="5" fill="url(#bar)">
<title>2026-07-18: 7 commits</title>
</rect>
<rect x="427.03" y="271.40" width="8.00" height="20.60" rx="5" fill="url(#bar)">
<title>2026-07-19: 2 commits</title>
</rect>
<rect x="472.61" y="281.70" width="8.00" height="10.30" rx="5" fill="url(#bar)">
<title>2026-07-25: 1 commit</title>
</rect>
<rect x="670.11" y="271.40" width="8.00" height="20.60" rx="5" fill="url(#bar)">
<title>2026-08-20: 2 commits</title>
</rect>
<rect x="898.00" y="261.10" width="8.00" height="30.90" rx="5" fill="url(#bar)">
<title>2026-09-19: 3 commits</title>
</rect>
<polyline fill="none" stroke="#a78bfa" stroke-width="3" stroke-linecap="round" stroke-linejoin="round" points="74.00,168.40 81.60,271.40 89.19,292.00 96.79,292.00 104.39,292.00 111.98,292.00 119.58,292.00 127.17,292.00 134.77,292.00 142.37,292.00 149.96,292.00 157.56,292.00 165.16,292.00 172.75,292.00 180.35,292.00 187.94,292.00 195.54,292.00 203.14,292.00 210.73,292.00 218.33,292.00 225.93,292.00 233.52,292.00 241.12,292.00 248.72,292.00 256.31,292.00 263.91,292.00 271.50,292.00 279.10,292.00 286.70,292.00 294.29,292.00 301.89,292.00 309.49,292.00 317.08,292.00 324.68,292.00 332.28,292.00 339.87,292.00 347.47,292.00 355.06,292.00 362.66,292.00 370.26,292.00 377.85,292.00 385.45,292.00 393.05,292.00 400.64,292.00 408.24,127.20 415.83,219.90 423.43,219.90 431.03,271.40 438.62,292.00 446.22,292.00 453.82,292.00 461.41,292.00 469.01,292.00 476.61,281.70 484.20,292.00 491.80,292.00 499.39,292.00 506.99,292.00 514.59,292.00 522.18,292.00 529.78,292.00 537.38,292.00 544.97,292.00 552.57,292.00 560.17,292.00 567.76,292.00 575.36,292.00 582.95,292.00 590.55,292.00 598.15,292.00 605.74,292.00 613.34,292.00 620.94,292.00 628.53,292.00 636.13,292.00 643.72,292.00 651.32,292.00 658.92,292.00 666.51,292.00 674.11,271.40 681.71,292.00 689.30,292.00 696.90,292.00 704.50,292.00 712.09,292.00 719.69,292.00 727.28,292.00 734.88,292.00 742.48,292.00 750.07,292.00 757.67,292.00 765.27,292.00 772.86,292.00 780.46,292.00 788.06,292.00 795.65,292.00 803.25,292.00 810.84,292.00 818.44,292.00 826.04,292.00 833.63,292.00 841.23,292.00 848.83,292.00 856.42,292.00 864.02,292.00 871.61,292.00 879.21,292.00 886.81,292.00 894.40,292.00 902.00,261.10" filter="url(#softGlow)"/>
<circle cx="74.00" cy="168.40" r="5.5" fill="#38bdf8" stroke="#e0f2fe" stroke-width="1.4">
<title>2026-06-02: 12 commits</title>
</circle>
<text x="74.00" y="157.40" text-anchor="middle" fill="#e5e7eb" font-size="11" font-family="Segoe UI, Arial, sans-serif" font-weight="700">12</text>
<circle cx="81.60" cy="271.40" r="5.5" fill="#38bdf8" stroke="#e0f2fe" stroke-width="1.4">
<title>2026-06-03: 2 commits</title>
</circle>
<text x="81.60" y="260.40" text-anchor="middle" fill="#e5e7eb" font-size="11" font-family="Segoe UI, Arial, sans-serif" font-weight="700">2</text>
<circle cx="408.24" cy="127.20" r="5.5" fill="#38bdf8" stroke="#e0f2fe" stroke-width="1.4">
<title>2026-07-16: 16 commits</title>
</circle>
<text x="408.24" y="116.20" text-anchor="middle" fill="#e5e7eb" font-size="11" font-family="Segoe UI, Arial, sans-serif" font-weight="700">16</text>
<circle cx="415.83" cy="219.90" r="5.5" fill="#38bdf8" stroke="#e0f2fe" stroke-width="1.4">
<title>2026-07-17: 7 commits</title>
</circle>
<text x="415.83" y="208.90" text-anchor="middle" fill="#e5e7eb" font-size="11" font-family="Segoe UI, Arial, sans-serif" font-weight="700">7</text>
<circle cx="423.43" cy="219.90" r="5.5" fill="#38bdf8" stroke="#e0f2fe" stroke-width="1.4">
<title>2026-07-18: 7 commits</title>
</circle>
<text x="423.43" y="208.90" text-anchor="middle" fill="#e5e7eb" font-size="11" font-family="Segoe UI, Arial, sans-serif" font-weight="700">7</text>
<circle cx="431.03" cy="271.40" r="5.5" fill="#38bdf8" stroke="#e0f2fe" stroke-width="1.4">
<title>2026-07-19: 2 commits</title>
</circle>
<text x="431.03" y="260.40" text-anchor="middle" fill="#e5e7eb" font-size="11" font-family="Segoe UI, Arial, sans-serif" font-weight="700">2</text>
<circle cx="476.61" cy="281.70" r="5.5" fill="#38bdf8" stroke="#e0f2fe" stroke-width="1.4">
<title>2026-07-25: 1 commit</title>
</circle>
<text x="476.61" y="270.70" text-anchor="middle" fill="#e5e7eb" font-size="11" font-family="Segoe UI, Arial, sans-serif" font-weight="700">1</text>
<circle cx="674.11" cy="271.40" r="5.5" fill="#38bdf8" stroke="#e0f2fe" stroke-width="1.4">
<title>2026-08-20: 2 commits</title>
</circle>
<text x="674.11" y="260.40" text-anchor="middle" fill="#e5e7eb" font-size="11" font-family="Segoe UI, Arial, sans-serif" font-weight="700">2</text>
<circle cx="902.00" cy="261.10" r="5.5" fill="#38bdf8" stroke="#e0f2fe" stroke-width="1.4">
<title>2026-09-19: 3 commits</title>
</circle>
<text x="902.00" y="250.10" text-anchor="middle" fill="#e5e7eb" font-size="11" font-family="Segoe UI, Arial, sans-serif" font-weight="700">3</text>
<text x="74" y="340" fill="#64748b" font-size="11" font-family="Segoe UI, Arial, sans-serif">Range: 2026-06-02 to 2026-09-19</text>
<text x="902" y="340" text-anchor="end" fill="#64748b" font-size="11" font-family="Segoe UI, Arial, sans-serif">Generated from local git log, excluding bot commits</text>
</svg>
