<svg xmlns="http://www.w3.org/2000/svg" width="940" height="360" viewBox="0 0 940 360" role="img" aria-labelledby="title desc">
<title id="title">Repository commit history chart</title>
<desc id="desc">A repo-only X and Y axis chart showing daily commits from this repository history.</desc>
<defs>
<linearGradient id="bg" x1="0" y1="0" x2="1" y2="1">
<stop offset="0%" stop-color="#0f172a"/>
<stop offset="65%" stop-color="#111827"/>
<stop offset="100%" stop-color="#18181b"/>
</linearGradient>
<linearGradient id="bar" x1="0" y1="0" x2="0" y2="1">
<stop offset="0%" stop-color="#38bdf8" stop-opacity="0.95"/>
<stop offset="100%" stop-color="#2563eb" stop-opacity="0.38"/>
</linearGradient>
<filter id="softGlow" x="-30%" y="-30%" width="160%" height="160%">
<feGaussianBlur stdDeviation="3" result="blur"/>
<feMerge><feMergeNode in="blur"/><feMergeNode in="SourceGraphic"/></feMerge>
</filter>
</defs>
<rect width="100%" height="100%" rx="18" fill="url(#bg)"/>
<rect x="1" y="1" width="938" height="358" rx="17" fill="none" stroke="#334155" stroke-width="1"/>
<text x="32" y="42" fill="#e5e7eb" font-size="22" font-family="Segoe UI, Arial, sans-serif" font-weight="700">C++ Repo Commit Chart</text>
<text x="32" y="66" fill="#94a3b8" font-size="13" font-family="Segoe UI, Arial, sans-serif">X axis: commit dates . Y axis: commits per day . Repo-only history</text>
<text x="908" y="42" text-anchor="end" fill="#38bdf8" font-size="12" font-family="Segoe UI, Arial, sans-serif">Latest repo commit: 2026-07-18</text>
<line x1="74" y1="292.00" x2="902" y2="292.00" stroke="#263244" stroke-width="1"/>
<text x="58" y="296.00" text-anchor="end" fill="#64748b" font-size="11" font-family="Segoe UI, Arial, sans-serif">0</text>
<line x1="74" y1="240.50" x2="902" y2="240.50" stroke="#263244" stroke-width="1"/>
<text x="58" y="244.50" text-anchor="end" fill="#64748b" font-size="11" font-family="Segoe UI, Arial, sans-serif">5</text>
<line x1="74" y1="189.00" x2="902" y2="189.00" stroke="#263244" stroke-width="1"/>
<text x="58" y="193.00" text-anchor="end" fill="#64748b" font-size="11" font-family="Segoe UI, Arial, sans-serif">10</text>
<line x1="74" y1="137.50" x2="902" y2="137.50" stroke="#263244" stroke-width="1"/>
<text x="58" y="141.50" text-anchor="end" fill="#64748b" font-size="11" font-family="Segoe UI, Arial, sans-serif">15</text>
<line x1="74" y1="86.00" x2="902" y2="86.00" stroke="#263244" stroke-width="1"/>
<text x="58" y="90.00" text-anchor="end" fill="#64748b" font-size="11" font-family="Segoe UI, Arial, sans-serif">20</text>
<line x1="74" y1="86" x2="74" y2="292" stroke="#64748b" stroke-width="1.2"/>
<line x1="74" y1="292" x2="902" y2="292" stroke="#64748b" stroke-width="1.2"/>
<text x="22" y="174" transform="rotate(-90 22 174)" fill="#64748b" font-size="11" font-family="Segoe UI, Arial, sans-serif">Commits</text>
<line x1="74.00" y1="292" x2="74.00" y2="298" stroke="#64748b" stroke-width="1"/>
<text x="74.00" y="316" text-anchor="middle" fill="#64748b" font-size="11" font-family="Segoe UI, Arial, sans-serif">Jun 02</text>
<line x1="218.00" y1="292" x2="218.00" y2="298" stroke="#64748b" stroke-width="1"/>
<text x="218.00" y="316" text-anchor="middle" fill="#64748b" font-size="11" font-family="Segoe UI, Arial, sans-serif">Jun 10</text>
<line x1="362.00" y1="292" x2="362.00" y2="298" stroke="#64748b" stroke-width="1"/>
<text x="362.00" y="316" text-anchor="middle" fill="#64748b" font-size="11" font-family="Segoe UI, Arial, sans-serif">Jun 18</text>
<line x1="506.00" y1="292" x2="506.00" y2="298" stroke="#64748b" stroke-width="1"/>
<text x="506.00" y="316" text-anchor="middle" fill="#64748b" font-size="11" font-family="Segoe UI, Arial, sans-serif">Jun 26</text>
<line x1="650.00" y1="292" x2="650.00" y2="298" stroke="#64748b" stroke-width="1"/>
<text x="650.00" y="316" text-anchor="middle" fill="#64748b" font-size="11" font-family="Segoe UI, Arial, sans-serif">Jul 04</text>
<line x1="794.00" y1="292" x2="794.00" y2="298" stroke="#64748b" stroke-width="1"/>
<text x="794.00" y="316" text-anchor="middle" fill="#64748b" font-size="11" font-family="Segoe UI, Arial, sans-serif">Jul 12</text>
<line x1="902.00" y1="292" x2="902.00" y2="298" stroke="#64748b" stroke-width="1"/>
<text x="902.00" y="316" text-anchor="middle" fill="#64748b" font-size="11" font-family="Segoe UI, Arial, sans-serif">Jul 18</text>
<rect x="67.15" y="168.40" width="13.70" height="123.60" rx="5" fill="url(#bar)">
<title>2026-06-02: 12 commits</title>
</rect>
<rect x="85.15" y="271.40" width="13.70" height="20.60" rx="5" fill="url(#bar)">
<title>2026-06-03: 2 commits</title>
</rect>
<rect x="859.15" y="127.20" width="13.70" height="164.80" rx="5" fill="url(#bar)">
<title>2026-07-16: 16 commits</title>
</rect>
<rect x="877.15" y="219.90" width="13.70" height="72.10" rx="5" fill="url(#bar)">
<title>2026-07-17: 7 commits</title>
</rect>
<rect x="895.15" y="281.70" width="13.70" height="10.30" rx="5" fill="url(#bar)">
<title>2026-07-18: 1 commit</title>
</rect>
<polyline fill="none" stroke="#a78bfa" stroke-width="3" stroke-linecap="round" stroke-linejoin="round" points="74.00,168.40 92.00,271.40 110.00,292.00 128.00,292.00 146.00,292.00 164.00,292.00 182.00,292.00 200.00,292.00 218.00,292.00 236.00,292.00 254.00,292.00 272.00,292.00 290.00,292.00 308.00,292.00 326.00,292.00 344.00,292.00 362.00,292.00 380.00,292.00 398.00,292.00 416.00,292.00 434.00,292.00 452.00,292.00 470.00,292.00 488.00,292.00 506.00,292.00 524.00,292.00 542.00,292.00 560.00,292.00 578.00,292.00 596.00,292.00 614.00,292.00 632.00,292.00 650.00,292.00 668.00,292.00 686.00,292.00 704.00,292.00 722.00,292.00 740.00,292.00 758.00,292.00 776.00,292.00 794.00,292.00 812.00,292.00 830.00,292.00 848.00,292.00 866.00,127.20 884.00,219.90 902.00,281.70" filter="url(#softGlow)"/>
<circle cx="74.00" cy="168.40" r="5.5" fill="#38bdf8" stroke="#e0f2fe" stroke-width="1.4">
<title>2026-06-02: 12 commits</title>
</circle>
<text x="74.00" y="157.40" text-anchor="middle" fill="#e5e7eb" font-size="11" font-family="Segoe UI, Arial, sans-serif" font-weight="700">12</text>
<circle cx="92.00" cy="271.40" r="5.5" fill="#38bdf8" stroke="#e0f2fe" stroke-width="1.4">
<title>2026-06-03: 2 commits</title>
</circle>
<text x="92.00" y="260.40" text-anchor="middle" fill="#e5e7eb" font-size="11" font-family="Segoe UI, Arial, sans-serif" font-weight="700">2</text>
<circle cx="866.00" cy="127.20" r="5.5" fill="#38bdf8" stroke="#e0f2fe" stroke-width="1.4">
<title>2026-07-16: 16 commits</title>
</circle>
<text x="866.00" y="116.20" text-anchor="middle" fill="#e5e7eb" font-size="11" font-family="Segoe UI, Arial, sans-serif" font-weight="700">16</text>
<circle cx="884.00" cy="219.90" r="5.5" fill="#38bdf8" stroke="#e0f2fe" stroke-width="1.4">
<title>2026-07-17: 7 commits</title>
</circle>
<text x="884.00" y="208.90" text-anchor="middle" fill="#e5e7eb" font-size="11" font-family="Segoe UI, Arial, sans-serif" font-weight="700">7</text>
<circle cx="902.00" cy="281.70" r="5.5" fill="#38bdf8" stroke="#e0f2fe" stroke-width="1.4">
<title>2026-07-18: 1 commit</title>
</circle>
<text x="902.00" y="270.70" text-anchor="middle" fill="#e5e7eb" font-size="11" font-family="Segoe UI, Arial, sans-serif" font-weight="700">1</text>
<text x="74" y="340" fill="#64748b" font-size="11" font-family="Segoe UI, Arial, sans-serif">Range: 2026-06-02 to 2026-07-18</text>
<text x="902" y="340" text-anchor="end" fill="#64748b" font-size="11" font-family="Segoe UI, Arial, sans-serif">Generated from local git log, excluding bot commits</text>
</svg>
